<svg width="16" height="16" viewBox="0 0 16 16" fill="none" xmlns="http://www.w3.org/2000/svg">
<path d="M3 12.6892H4.25C5.5625 14.7613 7.709 15.9961 10 15.9994C10.5303 15.9994 11.0391 15.7666 11.4141 15.3528C11.7891 14.939 12 14.3776 12 13.7926V2.20681C12 1.6217 11.7891 1.06032 11.4141 0.64654C11.039 0.232763 10.5302 0 10 0C7.70897 0.0032327 5.5625 1.2381 4.25 3.31022H3C1.34277 3.31022 0 4.79184 0 6.62043V9.37894C0 11.2075 1.34277 12.6892 3 12.6892ZM2 6.62043C2 6.01055 2.44727 5.51703 3 5.51703H5.3828L5.67285 4.96532C6.56835 3.2628 8.21585 2.21219 10.0001 2.20681V13.7926C8.21495 13.7883 6.5666 12.7377 5.6701 11.0341L5.38005 10.4823H3.00017C2.44745 10.4823 2.00017 9.98882 2.00017 9.37894L2 6.62043Z" fill="white"/>
<path d="M14 4.68948H16V11.3099H14V4.68948Z" fill="white"/>
</svg>
