<svg width="40" height="40" viewBox="0 0 40 40" fill="none" xmlns="http://www.w3.org/2000/svg">
<path fill-rule="evenodd" clip-rule="evenodd" d="M13.636 13.636C12.855 14.4171 12.855 15.6834 13.636 16.4645L17.1716 20L13.636 23.5355C12.855 24.3166 12.855 25.5829 13.636 26.364C14.4171 27.145 15.6834 27.145 16.4645 26.364L20 22.8284L23.5355 26.364C24.3166 27.145 25.5829 27.145 26.364 26.364C27.145 25.5829 27.145 24.3166 26.364 23.5355L22.8284 20L26.364 16.4645C27.145 15.6834 27.145 14.4171 26.364 13.636C25.5829 12.855 24.3166 12.855 23.5355 13.636L20 17.1716L16.4645 13.636C15.6834 12.855 14.4171 12.855 13.636 13.636Z" fill="white"/>
</svg>
