<svg width="187" height="36" viewBox="0 0 187 36" fill="none" xmlns="http://www.w3.org/2000/svg">
<path d="M181.424 25.2246C180.337 25.2246 179.396 25.0033 178.602 24.5605C177.814 24.1178 177.208 23.4798 176.785 22.6465C176.362 21.8132 176.15 20.8171 176.15 19.6582V19.6387C176.15 18.4928 176.365 17.5065 176.795 16.6797C177.225 15.8464 177.833 15.2083 178.621 14.7656C179.409 14.3164 180.343 14.0918 181.424 14.0918C182.511 14.0918 183.449 14.3164 184.236 14.7656C185.024 15.2083 185.63 15.8431 186.053 16.6699C186.482 17.4967 186.697 18.4863 186.697 19.6387V19.6582C186.697 20.8171 186.486 21.8132 186.062 22.6465C185.639 23.4798 185.034 24.1178 184.246 24.5605C183.458 25.0033 182.518 25.2246 181.424 25.2246ZM181.424 22.9883C181.925 22.9883 182.348 22.8581 182.693 22.5977C183.045 22.3307 183.315 21.9499 183.504 21.4551C183.693 20.9603 183.787 20.3646 183.787 19.668V19.6484C183.787 18.9518 183.693 18.3561 183.504 17.8613C183.315 17.3665 183.045 16.9889 182.693 16.7285C182.342 16.4616 181.919 16.3281 181.424 16.3281C180.936 16.3281 180.516 16.4616 180.164 16.7285C179.812 16.9889 179.542 17.3665 179.354 17.8613C179.165 18.3561 179.07 18.9518 179.07 19.6484V19.668C179.07 20.3646 179.161 20.9635 179.344 21.4648C179.533 21.9596 179.803 22.3372 180.154 22.5977C180.506 22.8581 180.929 22.9883 181.424 22.9883Z" fill="#F9F9F9"/>
<path d="M168.562 25V14.3164H171.414V16.0254H171.561C171.73 15.4264 172.042 14.9609 172.498 14.6289C172.954 14.2969 173.52 14.1309 174.197 14.1309C174.38 14.1309 174.559 14.1439 174.734 14.1699C174.91 14.196 175.066 14.2285 175.203 14.2676V16.7578C175.014 16.7057 174.812 16.6667 174.598 16.6406C174.389 16.6081 174.174 16.5918 173.953 16.5918C173.432 16.5918 172.98 16.6895 172.596 16.8848C172.218 17.0801 171.925 17.36 171.717 17.7246C171.515 18.0827 171.414 18.5156 171.414 19.0234V25H168.562Z" fill="#F9F9F9"/>
<path d="M157.107 20.5566V18.252H160.682C161.528 18.252 162.186 18.0371 162.654 17.6074C163.13 17.1712 163.367 16.5527 163.367 15.752V15.7324C163.367 14.9316 163.13 14.3164 162.654 13.8867C162.186 13.457 161.528 13.2422 160.682 13.2422H157.107V10.9082H161.404C162.394 10.9082 163.26 11.11 164.002 11.5137C164.744 11.9108 165.32 12.4707 165.73 13.1934C166.147 13.916 166.355 14.7591 166.355 15.7227V15.7422C166.355 16.7122 166.147 17.5586 165.73 18.2812C165.32 19.0039 164.744 19.5638 164.002 19.9609C163.26 20.3581 162.394 20.5566 161.404 20.5566H157.107ZM155.633 25V10.9082H158.582V25H155.633Z" fill="#F9F9F9"/>
<path d="M137.781 28.5254V14.3164H140.633V16.0156H140.779C140.968 15.6185 141.215 15.2832 141.521 15.0098C141.834 14.7298 142.199 14.515 142.615 14.3652C143.032 14.209 143.491 14.1309 143.992 14.1309C144.891 14.1309 145.662 14.3555 146.307 14.8047C146.958 15.2474 147.459 15.8789 147.811 16.6992C148.162 17.5195 148.338 18.5026 148.338 19.6484V19.668C148.338 20.8138 148.162 21.8001 147.811 22.627C147.465 23.4473 146.971 24.0788 146.326 24.5215C145.682 24.9642 144.907 25.1855 144.002 25.1855C143.507 25.1855 143.048 25.1074 142.625 24.9512C142.208 24.7949 141.84 24.5736 141.521 24.2871C141.209 24.0007 140.962 23.6589 140.779 23.2617H140.633V28.5254H137.781ZM143.025 22.8223C143.527 22.8223 143.956 22.6953 144.314 22.4414C144.673 22.181 144.949 21.8164 145.145 21.3477C145.34 20.8724 145.438 20.3125 145.438 19.668V19.6484C145.438 18.9909 145.34 18.4277 145.145 17.959C144.949 17.4902 144.673 17.1289 144.314 16.875C143.956 16.6211 143.527 16.4941 143.025 16.4941C142.537 16.4941 142.111 16.6211 141.746 16.875C141.382 17.1289 141.098 17.4902 140.896 17.959C140.701 18.4277 140.604 18.9909 140.604 19.6484V19.668C140.604 20.3125 140.704 20.8724 140.906 21.3477C141.108 21.8164 141.388 22.181 141.746 22.4414C142.111 22.6953 142.537 22.8223 143.025 22.8223Z" fill="#F9F9F9"/>
<path d="M125.086 28.5254V14.3164H127.938V16.0156H128.084C128.273 15.6185 128.52 15.2832 128.826 15.0098C129.139 14.7298 129.503 14.515 129.92 14.3652C130.337 14.209 130.796 14.1309 131.297 14.1309C132.195 14.1309 132.967 14.3555 133.611 14.8047C134.262 15.2474 134.764 15.8789 135.115 16.6992C135.467 17.5195 135.643 18.5026 135.643 19.6484V19.668C135.643 20.8138 135.467 21.8001 135.115 22.627C134.77 23.4473 134.275 24.0788 133.631 24.5215C132.986 24.9642 132.212 25.1855 131.307 25.1855C130.812 25.1855 130.353 25.1074 129.93 24.9512C129.513 24.7949 129.145 24.5736 128.826 24.2871C128.514 24.0007 128.266 23.6589 128.084 23.2617H127.938V28.5254H125.086ZM130.33 22.8223C130.831 22.8223 131.261 22.6953 131.619 22.4414C131.977 22.181 132.254 21.8164 132.449 21.3477C132.645 20.8724 132.742 20.3125 132.742 19.668V19.6484C132.742 18.9909 132.645 18.4277 132.449 17.959C132.254 17.4902 131.977 17.1289 131.619 16.875C131.261 16.6211 130.831 16.4941 130.33 16.4941C129.842 16.4941 129.415 16.6211 129.051 16.875C128.686 17.1289 128.403 17.4902 128.201 17.959C128.006 18.4277 127.908 18.9909 127.908 19.6484V19.668C127.908 20.3125 128.009 20.8724 128.211 21.3477C128.413 21.8164 128.693 22.181 129.051 22.4414C129.415 22.6953 129.842 22.8223 130.33 22.8223Z" fill="#F9F9F9"/>
<path d="M109.9 25L114.803 10.9082H117.332V13.7012H116.463L113.006 25H109.9ZM112.527 21.582L113.25 19.375H119.783L120.506 21.582H112.527ZM120.076 25L116.609 13.7012V10.9082H118.27L123.172 25H120.076Z" fill="#F9F9F9"/>
<path d="M103.768 25.2246C102.68 25.2246 101.74 25.0033 100.945 24.5605C100.158 24.1178 99.5521 23.4798 99.1289 22.6465C98.7057 21.8132 98.4941 20.8171 98.4941 19.6582V19.6387C98.4941 18.4928 98.709 17.5065 99.1387 16.6797C99.5684 15.8464 100.177 15.2083 100.965 14.7656C101.753 14.3164 102.687 14.0918 103.768 14.0918C104.855 14.0918 105.792 14.3164 106.58 14.7656C107.368 15.2083 107.973 15.8431 108.396 16.6699C108.826 17.4967 109.041 18.4863 109.041 19.6387V19.6582C109.041 20.8171 108.829 21.8132 108.406 22.6465C107.983 23.4798 107.378 24.1178 106.59 24.5605C105.802 25.0033 104.861 25.2246 103.768 25.2246ZM103.768 22.9883C104.269 22.9883 104.692 22.8581 105.037 22.5977C105.389 22.3307 105.659 21.9499 105.848 21.4551C106.036 20.9603 106.131 20.3646 106.131 19.668V19.6484C106.131 18.9518 106.036 18.3561 105.848 17.8613C105.659 17.3665 105.389 16.9889 105.037 16.7285C104.686 16.4616 104.262 16.3281 103.768 16.3281C103.279 16.3281 102.859 16.4616 102.508 16.7285C102.156 16.9889 101.886 17.3665 101.697 17.8613C101.508 18.3561 101.414 18.9518 101.414 19.6484V19.668C101.414 20.3646 101.505 20.9635 101.688 21.4648C101.876 21.9596 102.146 22.3372 102.498 22.5977C102.85 22.8581 103.273 22.9883 103.768 22.9883Z" fill="#F9F9F9"/>
<path d="M95.4961 25.0781C94.2201 25.0781 93.2956 24.847 92.7227 24.3848C92.1562 23.9225 91.873 23.1608 91.873 22.0996V16.4648H90.2715V14.3164H91.873V11.748H94.7539V14.3164H96.9023V16.4648H94.7539V21.5234C94.7539 22.0052 94.8646 22.3535 95.0859 22.5684C95.3073 22.7832 95.6523 22.8906 96.1211 22.8906C96.2904 22.8906 96.4303 22.8874 96.541 22.8809C96.6582 22.8743 96.7786 22.8646 96.9023 22.8516V24.9609C96.7331 24.9935 96.5247 25.0195 96.2773 25.0391C96.0365 25.0651 95.776 25.0781 95.4961 25.0781Z" fill="#F9F9F9"/>
<path d="M83.709 25.2246C82.6217 25.2246 81.681 25.0033 80.8867 24.5605C80.099 24.1178 79.4935 23.4798 79.0703 22.6465C78.6471 21.8132 78.4355 20.8171 78.4355 19.6582V19.6387C78.4355 18.4928 78.6504 17.5065 79.0801 16.6797C79.5098 15.8464 80.1185 15.2083 80.9062 14.7656C81.694 14.3164 82.6283 14.0918 83.709 14.0918C84.7962 14.0918 85.7337 14.3164 86.5215 14.7656C87.3092 15.2083 87.9147 15.8431 88.3379 16.6699C88.7676 17.4967 88.9824 18.4863 88.9824 19.6387V19.6582C88.9824 20.8171 88.7708 21.8132 88.3477 22.6465C87.9245 23.4798 87.319 24.1178 86.5312 24.5605C85.7435 25.0033 84.8027 25.2246 83.709 25.2246ZM83.709 22.9883C84.2103 22.9883 84.6335 22.8581 84.9785 22.5977C85.3301 22.3307 85.6003 21.9499 85.7891 21.4551C85.9779 20.9603 86.0723 20.3646 86.0723 19.668V19.6484C86.0723 18.9518 85.9779 18.3561 85.7891 17.8613C85.6003 17.3665 85.3301 16.9889 84.9785 16.7285C84.627 16.4616 84.2038 16.3281 83.709 16.3281C83.2207 16.3281 82.8008 16.4616 82.4492 16.7285C82.0977 16.9889 81.8275 17.3665 81.6387 17.8613C81.4499 18.3561 81.3555 18.9518 81.3555 19.6484V19.668C81.3555 20.3646 81.4466 20.9635 81.6289 21.4648C81.8177 21.9596 82.0879 22.3372 82.4395 22.5977C82.791 22.8581 83.2142 22.9883 83.709 22.9883Z" fill="#F9F9F9"/>
<path d="M66.5996 25V10.3223H69.4512V16.0156H69.5977C69.8516 15.4167 70.2422 14.9479 70.7695 14.6094C71.2969 14.2643 71.9447 14.0918 72.7129 14.0918C73.5072 14.0918 74.1745 14.2513 74.7148 14.5703C75.2617 14.8893 75.6784 15.3516 75.9648 15.957C76.2513 16.556 76.3945 17.2819 76.3945 18.1348V25H73.543V18.7695C73.543 18.0143 73.3802 17.4414 73.0547 17.0508C72.7292 16.6536 72.2311 16.4551 71.5605 16.4551C71.1243 16.4551 70.75 16.556 70.4375 16.7578C70.125 16.9531 69.8809 17.2298 69.7051 17.5879C69.5358 17.9395 69.4512 18.3561 69.4512 18.8379V25H66.5996Z" fill="#F9F9F9"/>
<path d="M55.0566 20.5566V18.252H58.6309C59.4772 18.252 60.1348 18.0371 60.6035 17.6074C61.0788 17.1712 61.3164 16.5527 61.3164 15.752V15.7324C61.3164 14.9316 61.0788 14.3164 60.6035 13.8867C60.1348 13.457 59.4772 13.2422 58.6309 13.2422H55.0566V10.9082H59.3535C60.3431 10.9082 61.209 11.11 61.9512 11.5137C62.6934 11.9108 63.2695 12.4707 63.6797 13.1934C64.0964 13.916 64.3047 14.7591 64.3047 15.7227V15.7422C64.3047 16.7122 64.0964 17.5586 63.6797 18.2812C63.2695 19.0039 62.6934 19.5638 61.9512 19.9609C61.209 20.3581 60.3431 20.5566 59.3535 20.5566H55.0566ZM53.582 25V10.9082H56.5312V25H53.582Z" fill="#F9F9F9"/>
<path fill-rule="evenodd" clip-rule="evenodd" d="M18 0C8.0651 0 0 8.0651 0 18C0 27.9349 8.0651 36 18 36C27.9349 36 36 27.9349 36 18C36 8.0651 27.9349 0 18 0ZM18 2.51155C26.5473 2.51155 33.4884 9.45148 33.4884 18C33.4884 26.5473 26.5485 33.4884 18 33.4884C9.45268 33.4884 2.51155 26.5485 2.51155 18C2.51155 9.45268 9.45148 2.51155 18 2.51155Z" fill="#F9F9F9"/>
<path fill-rule="evenodd" clip-rule="evenodd" d="M8.53928 17.3723C8.31638 17.76 8.31638 18.2404 8.53928 18.6281L12.7257 25.8786C12.9502 26.2664 13.3646 26.5065 13.8135 26.5065H22.1848C22.6338 26.5065 23.0482 26.2664 23.2726 25.8786L27.4591 18.6281C27.682 18.2404 27.682 17.76 27.4591 17.3723L23.2726 10.1218C23.0482 9.73403 22.6338 9.49387 22.1848 9.49387H13.8135C13.3646 9.49387 12.9502 9.73403 12.7257 10.1218L8.53928 17.3723ZM11.0775 18.0002L14.5388 12.0054H21.4614L24.9226 18.0002L21.4614 23.995H14.5388L11.0775 18.0002Z" fill="#F9F9F9"/>
<path fill-rule="evenodd" clip-rule="evenodd" d="M14.8825 11.4105L20.2274 2.75346C20.59 2.16484 20.408 1.38939 19.8178 1.02519C19.2291 0.659447 18.4553 0.844675 18.0895 1.43331L12.7461 10.0903C12.3804 10.679 12.5656 11.4544 13.1542 11.8186C13.7429 12.1844 14.5183 11.9991 14.8825 11.4105Z" fill="#F9F9F9"/>
<path fill-rule="evenodd" clip-rule="evenodd" d="M21.3482 12.0052H33.0693C33.7632 12.0052 34.3251 11.4433 34.3251 10.7495C34.3251 10.0556 33.7632 9.49368 33.0693 9.49368H21.3482C20.6544 9.49368 20.0924 10.0556 20.0924 10.7495C20.0924 11.4433 20.6544 12.0052 21.3482 12.0052Z" fill="#F9F9F9"/>
<path fill-rule="evenodd" clip-rule="evenodd" d="M25.2489 18.5606L30.272 28.6068C30.5813 29.2284 31.3363 29.4796 31.9564 29.1687C32.578 28.8595 32.8291 28.1045 32.5183 27.4844L27.4952 17.4382C27.186 16.8166 26.4309 16.5654 25.8109 16.8763C25.1893 17.1855 24.9381 17.9405 25.2489 18.5606Z" fill="#F9F9F9"/>
<path fill-rule="evenodd" clip-rule="evenodd" d="M21.1095 24.604L15.4097 34.0976C15.0534 34.6926 15.2449 35.4633 15.8398 35.8212C16.4332 36.1775 17.2054 35.986 17.5634 35.3911L23.2632 25.8974C23.6195 25.3025 23.428 24.5318 22.8331 24.1739C22.2382 23.8176 21.4674 24.0091 21.1095 24.604Z" fill="#F9F9F9"/>
<path fill-rule="evenodd" clip-rule="evenodd" d="M13.8136 23.9948H2.9307C2.23687 23.9948 1.67493 24.5567 1.67493 25.2506C1.67493 25.9444 2.23687 26.5063 2.9307 26.5063H13.8136C14.5074 26.5063 15.0693 25.9444 15.0693 25.2506C15.0693 24.5567 14.5074 23.9948 13.8136 23.9948Z" fill="#F9F9F9"/>
<path fill-rule="evenodd" clip-rule="evenodd" d="M10.657 17.2795L4.79726 8.90818C4.40012 8.33993 3.61683 8.20181 3.04858 8.60052C2.48032 8.99766 2.34221 9.78095 2.74092 10.3492L8.60067 18.7205C8.99781 19.2888 9.7811 19.4269 10.3494 19.0282C10.9176 18.631 11.0557 17.8477 10.657 17.2795Z" fill="#F9F9F9"/>
</svg>
