<svg width="75" height="34" viewBox="0 0 75 34" fill="none" xmlns="http://www.w3.org/2000/svg">
<g style="mix-blend-mode:overlay">
<path d="M56.5195 34C45.1351 34 37.7838 27.3819 37.7838 17.2779C37.7838 7.07281 45.3393 0 56.2642 0C67.3934 0 75 7.17385 75 17.3789C75 27.4829 67.5976 34 56.5195 34ZM60.7567 32.9896C65.4024 31.7771 66.8318 24.7043 64.2793 15.3581C61.6757 5.65825 56.5705 -0.2526 51.8228 1.0104C47.3303 2.22288 45.8498 9.64933 48.5045 19.4502C51.057 28.8975 55.8558 34.3031 60.7567 32.9896Z" fill="white"/>
<path d="M41.3514 0L27.6697 33.8484H27.1592L20.7267 18.0357L14.2943 33.8484H13.7838L0 0H10.6697L19.0931 20.7132C19.7057 19.1471 20.012 17.7325 20.0631 16.419L13.3754 0H24.0451L32.4685 20.7132C35.7358 12.63 29.6607 8.08321 32.9279 0H41.3514Z" fill="white"/>
</g>
</svg>
