<svg width="104" height="23" viewBox="0 0 104 23" fill="none" xmlns="http://www.w3.org/2000/svg">
<path d="M22.5471 7.29994C22.5471 7.03679 22.5471 6.77453 22.5453 6.51138C22.5436 6.2902 22.5419 6.06902 22.5357 5.84784C22.5226 5.36614 22.4946 4.88007 22.409 4.40274C22.3224 3.91842 22.1799 3.46819 21.9561 3.02845C21.7358 2.59658 21.4491 2.20143 21.1064 1.85873C20.7637 1.51603 20.3685 1.22841 19.9366 1.00898C19.4969 0.785176 19.0467 0.643551 18.5632 0.556128C18.0868 0.470453 17.5998 0.441603 17.1181 0.429364C16.8969 0.423245 16.6758 0.420622 16.4546 0.419748C16.1914 0.417999 15.9292 0.417999 15.666 0.417999H7.42991C7.16677 0.417999 6.9045 0.417999 6.64136 0.419748C6.42018 0.421496 6.199 0.423245 5.97782 0.429364C5.49612 0.442478 5.00917 0.470453 4.53271 0.556128C4.04926 0.642676 3.59904 0.785176 3.1593 1.00898C2.72743 1.22928 2.33228 1.51603 1.98958 1.85873C1.64601 2.20143 1.35926 2.59658 1.13895 3.02845C0.91515 3.46819 0.773525 3.91842 0.686102 4.40274C0.600427 4.87919 0.572452 5.36527 0.559339 5.84784C0.553219 6.06902 0.550597 6.2902 0.549722 6.51138C0.547974 6.77453 0.547974 7.03679 0.547974 7.29994V15.5361C0.547974 15.7992 0.547974 16.0615 0.549722 16.3246C0.551471 16.5458 0.553219 16.767 0.559339 16.9882C0.572452 17.4699 0.600427 17.9559 0.686102 18.4333C0.772651 18.9176 0.91515 19.3678 1.13895 19.8075C1.35926 20.2394 1.64601 20.6346 1.9887 20.9773C2.3314 21.32 2.72656 21.6076 3.15842 21.827C3.59816 22.0508 4.04839 22.1924 4.53184 22.2799C5.00829 22.3655 5.49524 22.3944 5.97694 22.4066C6.19812 22.4128 6.4193 22.4154 6.64048 22.4163C6.90363 22.418 7.16589 22.418 7.42904 22.418H15.6652C15.9283 22.418 16.1906 22.418 16.4537 22.4163C16.6749 22.4145 16.8961 22.4128 17.1173 22.4066C17.599 22.3935 18.0859 22.3655 18.5624 22.2799C19.0458 22.1933 19.496 22.0508 19.9358 21.827C20.3676 21.6067 20.7628 21.32 21.1055 20.9773C21.4482 20.6346 21.7358 20.2394 21.9552 19.8075C22.179 19.3678 22.3207 18.9176 22.4081 18.4333C22.4938 17.9568 22.5217 17.4707 22.5349 16.9882C22.541 16.767 22.5436 16.5458 22.5445 16.3246C22.5462 16.0615 22.5462 15.7992 22.5462 15.5361V7.29994H22.5471Z" fill="url(#paint0_linear_1_49)"/>
<path d="M11.5405 8.41806C12.4497 8.41806 13.1867 9.15504 13.1867 10.0634C13.1867 10.9726 12.4497 11.7087 11.5405 11.7087C10.6313 11.7087 9.89436 10.9717 9.89436 10.0634C9.89436 9.15504 10.6313 8.41806 11.5405 8.41806ZM16.2789 10.6412C16.2789 12.2655 15.4571 13.701 14.2069 14.5543C14.1431 14.598 14.0566 14.5482 14.0618 14.4712C14.0793 14.1827 14.0845 13.9266 14.0697 13.6634C14.0644 13.5769 14.0985 13.493 14.1624 13.4335C14.9081 12.7341 15.374 11.741 15.374 10.6404C15.374 8.47663 13.5714 6.72642 11.3893 6.81123C9.38119 6.88903 7.76124 8.52909 7.70879 10.5381C7.67906 11.6789 8.15027 12.7132 8.91872 13.4344C8.98167 13.4938 9.01576 13.5778 9.01052 13.6643C8.99565 13.9275 9.0009 14.1827 9.01838 14.4721C9.02275 14.549 8.93708 14.598 8.87326 14.5552C7.60738 13.6905 6.78036 12.2297 6.80134 10.58C6.83368 8.07186 8.84529 6.00519 11.3517 5.90815C14.0505 5.80324 16.2789 7.96696 16.2789 10.6412ZM11.5204 3.56958C15.43 3.55821 18.6139 6.73517 18.6139 10.6404C18.6139 13.7194 16.6347 16.3447 13.8817 17.3125C13.8144 17.3361 13.7453 17.2801 13.7567 17.2093C13.7934 16.9672 13.8275 16.7241 13.859 16.4855C13.8704 16.4007 13.9237 16.3281 14.0015 16.294C16.1818 15.342 17.7091 13.166 17.7091 10.6404C17.7091 7.22299 14.9142 4.44643 11.4898 4.47441C8.13978 4.50151 5.40519 7.23173 5.37285 10.58C5.34837 13.1319 6.88264 15.3341 9.07958 16.294C9.15739 16.3281 9.21159 16.4007 9.22295 16.4855C9.25443 16.725 9.28852 16.968 9.32524 17.2102C9.33573 17.281 9.26754 17.337 9.20022 17.3133C6.42017 16.336 4.42955 13.6696 4.46802 10.5512C4.51522 6.7037 7.67032 3.58094 11.5204 3.56958ZM11.5405 12.3748C12.1665 12.3748 12.6963 12.5785 12.9988 12.8976C13.1561 13.0637 13.2392 13.2342 13.2654 13.4764C13.3161 13.9458 13.2872 14.3506 13.2322 14.9975C13.1797 15.6138 13.0801 16.4356 12.9498 17.2723C12.8571 17.8676 12.7819 18.1893 12.7138 18.4193C12.6027 18.7925 12.1883 19.1186 11.5397 19.1186C10.891 19.1186 10.4766 18.7925 10.3656 18.4193C10.2974 18.1893 10.2222 17.8676 10.1295 17.2723C9.99927 16.4356 9.89961 15.6138 9.84715 14.9975C9.79208 14.3506 9.76323 13.9458 9.81393 13.4764C9.84016 13.2342 9.92321 13.0637 10.0806 12.8976C10.3848 12.5785 10.9146 12.3748 11.5405 12.3748Z" fill="white"/>
<path d="M47.8552 6.11725C49.9647 6.11725 51.4334 7.57109 51.4334 9.6876C51.4334 11.812 49.9341 13.2737 47.8027 13.2737H45.4677V16.9874H43.7804V6.11725H47.8552ZM45.4677 11.8574H47.4041C48.8728 11.8574 49.7094 11.0663 49.7094 9.69547C49.7094 8.32468 48.8737 7.54137 47.4119 7.54137H45.4685L45.4677 11.8574Z" fill="white"/>
<path d="M51.6826 13.0244C51.6826 10.4786 53.1819 8.91901 55.4418 8.91901C57.7017 8.91901 59.201 10.4786 59.201 13.0244C59.201 15.578 57.7096 17.1376 55.4418 17.1376C53.1741 17.1376 51.6826 15.578 51.6826 13.0244ZM57.5426 13.0244C57.5426 11.2689 56.7138 10.2601 55.4409 10.2601C54.1681 10.2601 53.3393 11.2698 53.3393 13.0244C53.3393 14.7868 54.1681 15.7966 55.4409 15.7966C56.7217 15.7966 57.5426 14.7877 57.5426 13.0244Z" fill="white"/>
<path d="M60.1049 13.0244C60.1049 10.5232 61.4303 8.93388 63.4191 8.93388C64.5565 8.93388 65.4604 9.5065 65.9046 10.3799H65.9352V6.11624H67.57V16.9864H65.9885V15.6384H65.9579C65.4911 16.5423 64.5871 17.1219 63.4349 17.1219C61.4311 17.1228 60.1049 15.5256 60.1049 13.0244ZM61.7703 13.0244C61.7703 14.6968 62.5764 15.7441 63.865 15.7441C65.1151 15.7441 65.9518 14.6819 65.9518 13.0244C65.9518 11.3826 65.116 10.3047 63.865 10.3047C62.5764 10.3056 61.7703 11.3599 61.7703 13.0244Z" fill="white"/>
<path d="M74.3015 11.7891C74.1363 10.9455 73.5034 10.2749 72.4412 10.2749C71.1832 10.2749 70.3544 11.3223 70.3544 13.0244C70.3544 14.7641 71.191 15.7738 72.456 15.7738C73.4579 15.7738 74.1136 15.224 74.3015 14.3051H75.8682C75.6951 15.9924 74.3461 17.1376 72.4403 17.1376C70.1725 17.1376 68.6968 15.5859 68.6968 13.0244C68.6968 10.5084 70.1734 8.91901 72.4254 8.91901C74.4668 8.91901 75.7099 10.2295 75.8533 11.7891H74.3015Z" fill="white"/>
<path d="M76.7057 14.7344C76.7057 13.3479 77.7679 12.4972 79.651 12.3914L81.8208 12.2638V11.6536C81.8208 10.7724 81.2255 10.2452 80.2315 10.2452C79.2899 10.2452 78.7024 10.6972 78.5591 11.4053H77.0222C77.1122 9.9742 78.3326 8.91901 80.2918 8.91901C82.2125 8.91901 83.4408 9.93574 83.4408 11.5251V16.9864H81.8803V15.6829H81.8427C81.3828 16.5641 80.381 17.1219 79.3415 17.1219C77.7906 17.1228 76.7057 16.1585 76.7057 14.7344ZM81.8208 14.0193V13.3942L79.8695 13.514C78.8974 13.5821 78.3475 14.0114 78.3475 14.6889C78.3475 15.3822 78.9201 15.8342 79.7935 15.8342C80.9317 15.8342 81.8208 15.0509 81.8208 14.0193Z" fill="white"/>
<path d="M87.8382 8.91901C89.6837 8.91901 90.8813 9.9436 90.9347 11.4053H89.4056C89.3156 10.6369 88.75 10.1552 87.839 10.1552C86.9578 10.1552 86.3703 10.5844 86.3703 11.2174C86.3703 11.7148 86.7323 12.0531 87.5907 12.2489L88.8785 12.5427C90.4984 12.9195 91.1156 13.5524 91.1156 14.6968C91.1156 16.1428 89.7676 17.1376 87.8993 17.1376C85.9183 17.1376 84.7276 16.1655 84.5773 14.6592H86.1894C86.3397 15.488 86.9053 15.8945 87.8993 15.8945C88.8785 15.8945 89.4808 15.488 89.4808 14.8402C89.4808 14.3279 89.1871 14.0263 88.3207 13.8304L87.033 13.5288C85.5267 13.1826 84.7801 12.4588 84.7801 11.3065C84.7801 9.89115 86.0154 8.91901 87.8382 8.91901Z" fill="white"/>
<path d="M94.5216 7.18628V9.06238H96.0279V10.351H94.5216V14.7204C94.5216 15.4058 94.8232 15.7144 95.4859 15.7144C95.6511 15.7144 95.9151 15.6995 96.0209 15.6768V16.9645C95.8399 17.01 95.4789 17.0397 95.117 17.0397C93.5127 17.0397 92.8868 16.4295 92.8868 14.9005V10.351H91.7346V9.06238H92.8868V7.18628H94.5216Z" fill="white"/>
<path d="M100.231 8.91901C102.077 8.91901 103.274 9.9436 103.328 11.4053H101.799C101.709 10.6369 101.143 10.1552 100.232 10.1552C99.3509 10.1552 98.7634 10.5844 98.7634 11.2174C98.7634 11.7148 99.1253 12.0531 99.9838 12.2489L101.272 12.5427C102.891 12.9195 103.509 13.5524 103.509 14.6968C103.509 16.1428 102.161 17.1376 100.292 17.1376C98.3114 17.1376 97.1207 16.1655 96.9703 14.6592H98.5824C98.7328 15.488 99.2984 15.8945 100.292 15.8945C101.272 15.8945 101.874 15.488 101.874 14.8402C101.874 14.3279 101.58 14.0263 100.714 13.8304L99.426 13.5288C97.9197 13.1826 97.1732 12.4588 97.1732 11.3065C97.1732 9.89115 98.4084 8.91901 100.231 8.91901Z" fill="white"/>
<path d="M36.045 8.14358C35.0755 8.07189 34.252 8.6856 33.793 8.6856C33.327 8.6856 32.6093 8.15932 31.8478 8.17418C30.8477 8.18904 29.9263 8.75554 29.4113 9.65075C28.3728 11.4534 29.1464 14.1242 30.1579 15.5868C30.6527 16.301 31.2429 17.1071 32.0183 17.0773C32.764 17.0476 33.0464 16.5948 33.9486 16.5948C34.8499 16.5948 35.1043 17.0773 35.8929 17.0625C36.6963 17.0476 37.2042 16.3334 37.6955 15.6148C38.2638 14.7851 38.4972 13.9817 38.5112 13.9397C38.4937 13.9327 36.9463 13.3391 36.9306 11.5566C36.9166 10.066 38.1475 9.34914 38.2035 9.31505C37.5041 8.28521 36.4253 8.17243 36.045 8.14358Z" fill="white"/>
<path d="M35.447 7.17841C35.8587 6.68098 36.1359 5.98771 36.0598 5.29794C35.4671 5.32155 34.7502 5.6931 34.3245 6.19053C33.9433 6.63114 33.6094 7.33665 33.7003 8.01243C34.3612 8.06313 35.0352 7.67672 35.447 7.17841Z" fill="white"/>
<defs>
<linearGradient id="paint0_linear_1_49" x1="11.5474" y1="0.418087" x2="11.5474" y2="22.4172" gradientUnits="userSpaceOnUse">
<stop stop-color="#D56EFC"/>
<stop offset="1" stop-color="#832BC1"/>
</linearGradient>
</defs>
</svg>
