<svg width="122" height="22" viewBox="0 0 122 22" fill="none" xmlns="http://www.w3.org/2000/svg">
<path d="M9.91235 7.00049V10.3343V11.6668V15.0005H12.7444V11.6668V10.3343V7.00049H9.91235Z" fill="#FAB908"/>
<path d="M1.41627 11.6248C2.19832 11.6248 2.8323 11.0092 2.8323 10.2498C2.8323 9.49036 2.19832 8.87476 1.41627 8.87476C0.634222 8.87476 0.000244141 9.49036 0.000244141 10.2498C0.000244141 11.0092 0.634222 11.6248 1.41627 11.6248Z" fill="#0066D9"/>
<path d="M1.41627 13.1253C2.19832 13.1253 2.8323 12.5096 2.8323 11.7502C2.8323 10.9909 2.19832 10.3752 1.41627 10.3752C0.634222 10.3752 0.000244141 10.9909 0.000244141 11.7502C0.000244141 12.5096 0.634222 13.1253 1.41627 13.1253Z" fill="#0066D9"/>
<path d="M2.8323 10.2505H0.000244141V11.7505H2.8323V10.2505Z" fill="#0066D9"/>
<path d="M21.2405 13.1253C22.0226 13.1253 22.6565 12.5096 22.6565 11.7502C22.6565 10.9909 22.0226 10.3752 21.2405 10.3752C20.4585 10.3752 19.8245 10.9909 19.8245 11.7502C19.8245 12.5096 20.4585 13.1253 21.2405 13.1253Z" fill="#4285F4"/>
<path d="M21.2405 11.6248C22.0226 11.6248 22.6565 11.0092 22.6565 10.2498C22.6565 9.49036 22.0226 8.87476 21.2405 8.87476C20.4585 8.87476 19.8245 9.49036 19.8245 10.2498C19.8245 11.0092 20.4585 11.6248 21.2405 11.6248Z" fill="#4285F4"/>
<path d="M19.8245 11.7505H22.6565V10.2505H19.8245V11.7505Z" fill="#4285F4"/>
<path d="M6.30787 16.1253C7.08989 16.1253 7.72388 15.5096 7.72388 14.7502C7.72388 13.9909 7.08989 13.3752 6.30787 13.3752C5.52582 13.3752 4.89185 13.9909 4.89185 14.7502C4.89185 15.5096 5.52582 16.1253 6.30787 16.1253Z" fill="#EA4335"/>
<path d="M6.30787 17.6251C7.08989 17.6251 7.72388 17.0095 7.72388 16.2501C7.72388 15.4907 7.08989 14.875 6.30787 14.875C5.52582 14.875 4.89185 15.4907 4.89185 16.2501C4.89185 17.0095 5.52582 17.6251 6.30787 17.6251Z" fill="#EA4335"/>
<path d="M7.72388 14.7502H4.89185V16.2502H7.72388V14.7502Z" fill="#EA4335"/>
<path d="M6.30787 7.12499C7.08989 7.12499 7.72388 6.50938 7.72388 5.75001C7.72388 4.99061 7.08989 4.375 6.30787 4.375C5.52582 4.375 4.89185 4.99061 4.89185 5.75001C4.89185 6.50938 5.52582 7.12499 6.30787 7.12499Z" fill="#EA4335"/>
<path d="M6.30787 11.9995C7.08989 11.9995 7.72388 11.3839 7.72388 10.6245C7.72388 9.86512 7.08989 9.24951 6.30787 9.24951C5.52582 9.24951 4.89185 9.86512 4.89185 10.6245C4.89185 11.3839 5.52582 11.9995 6.30787 11.9995Z" fill="#EA4335"/>
<path d="M7.72388 5.75H4.89185V10.6563H7.72388V5.75Z" fill="#EA4335"/>
<path d="M16.3489 8.62551C17.1309 8.62551 17.7649 8.0099 17.7649 7.2505C17.7649 6.4911 17.1309 5.87549 16.3489 5.87549C15.5668 5.87549 14.9329 6.4911 14.9329 7.2505C14.9329 8.0099 15.5668 8.62551 16.3489 8.62551Z" fill="#34A853"/>
<path d="M16.3489 7.12499C17.1309 7.12499 17.7649 6.50938 17.7649 5.75001C17.7649 4.99061 17.1309 4.375 16.3489 4.375C15.5668 4.375 14.9329 4.99061 14.9329 5.75001C14.9329 6.50938 15.5668 7.12499 16.3489 7.12499Z" fill="#34A853"/>
<path d="M14.9326 7.25H17.7647V5.75H14.9326V7.25Z" fill="#34A853"/>
<path d="M11.3284 4.2505C12.1105 4.2505 12.7444 3.63489 12.7444 2.87549C12.7444 2.1161 12.1105 1.50049 11.3284 1.50049C10.5463 1.50049 9.91235 2.1161 9.91235 2.87549C9.91235 3.63489 10.5463 4.2505 11.3284 4.2505Z" fill="#FAB908"/>
<path d="M11.3284 2.75001C12.1105 2.75001 12.7444 2.1344 12.7444 1.37501C12.7444 0.615613 12.1105 0 11.3284 0C10.5463 0 9.91235 0.615613 9.91235 1.37501C9.91235 2.1344 10.5463 2.75001 11.3284 2.75001Z" fill="#FAB908"/>
<path d="M9.91235 2.87501H12.7444V1.375H9.91235V2.87501Z" fill="#FAB908"/>
<path d="M11.3284 22C12.1105 22 12.7444 21.3844 12.7444 20.625C12.7444 19.8656 12.1105 19.25 11.3284 19.25C10.5463 19.25 9.91235 19.8656 9.91235 20.625C9.91235 21.3844 10.5463 22 11.3284 22Z" fill="#FAB908"/>
<path d="M11.3284 20.5003C12.1105 20.5003 12.7444 19.8846 12.7444 19.1252C12.7444 18.3659 12.1105 17.7502 11.3284 17.7502C10.5463 17.7502 9.91235 18.3659 9.91235 19.1252C9.91235 19.8846 10.5463 20.5003 11.3284 20.5003Z" fill="#FAB908"/>
<path d="M9.91235 20.6252H12.7444V19.1252H9.91235V20.6252Z" fill="#FAB908"/>
<path d="M16.3489 17.6251C17.1309 17.6251 17.7649 17.0095 17.7649 16.2501C17.7649 15.4907 17.1309 14.875 16.3489 14.875C15.5668 14.875 14.9329 15.4907 14.9329 16.2501C14.9329 17.0095 15.5668 17.6251 16.3489 17.6251Z" fill="#34A853"/>
<path d="M16.3489 12.7505C17.1309 12.7505 17.7649 12.1349 17.7649 11.3755C17.7649 10.6161 17.1309 10.0005 16.3489 10.0005C15.5668 10.0005 14.9329 10.6161 14.9329 11.3755C14.9329 12.1349 15.5668 12.7505 16.3489 12.7505Z" fill="#34A853"/>
<path d="M14.9326 16.2506H17.7647V11.3755H14.9326V16.2506Z" fill="#34A853"/>
<path d="M11.3284 8.37529C12.1105 8.37529 12.7444 7.75962 12.7444 7.00028C12.7444 6.24088 12.1105 5.62524 11.3284 5.62524C10.5463 5.62524 9.91235 6.24088 9.91235 7.00028C9.91235 7.75962 10.5463 8.37529 11.3284 8.37529Z" fill="#FAB908"/>
<path d="M11.3284 16.3753C12.1105 16.3753 12.7444 15.7597 12.7444 15.0003C12.7444 14.2409 12.1105 13.6252 11.3284 13.6252C10.5463 13.6252 9.91235 14.2409 9.91235 15.0003C9.91235 15.7597 10.5463 16.3753 11.3284 16.3753Z" fill="#FAB908"/>
<path fill-rule="evenodd" clip-rule="evenodd" d="M74.8003 14.4506H73.6213V5.54028H76.7486C77.5259 5.54028 78.1986 5.79125 78.7668 6.29315C79.3349 6.79509 79.619 7.42767 79.619 8.19095C79.619 8.95423 79.3349 9.58681 78.7668 10.0888C78.1986 10.5907 77.5259 10.8417 76.7486 10.8417H74.8003V14.4506ZM74.8003 9.74655H76.7739C77.2697 9.74655 77.667 9.58475 77.9659 9.26121C78.2648 8.93762 78.4146 8.58086 78.4146 8.19095C78.4146 7.80104 78.2648 7.44428 77.9659 7.12075C77.667 6.79715 77.2697 6.63541 76.7739 6.63541H74.8003V9.74655ZM80.5968 9.08699C81.2033 8.46472 81.9763 8.15361 82.9164 8.15361C83.8565 8.15361 84.6295 8.46265 85.236 9.08075C85.8425 9.69884 86.1458 10.4724 86.1458 11.4016C86.1458 12.3308 85.8425 13.1045 85.236 13.7226C84.6295 14.3407 83.8565 14.6496 82.9164 14.6496C81.9763 14.6496 81.2033 14.3407 80.5968 13.7226C79.9903 13.1045 79.687 12.3308 79.687 11.4016C79.687 10.4724 79.9903 9.7009 80.5968 9.08699ZM81.4682 13.007C81.8785 13.4052 82.3613 13.6043 82.9164 13.6043C83.4715 13.6043 83.9524 13.4031 84.3584 13.0007C84.7638 12.5984 84.9668 12.0654 84.9668 11.4016C84.9668 10.7379 84.7638 10.2049 84.3584 9.8025C83.9524 9.40016 83.4715 9.19896 82.9164 9.19896C82.3613 9.19896 81.8804 9.40016 81.4744 9.8025C81.069 10.2049 80.866 10.7379 80.866 11.4016C80.866 12.0654 81.0665 12.6005 81.4682 13.007ZM89.6994 14.6496C88.888 14.6496 88.1875 14.3385 87.5977 13.7163C87.0085 13.0941 86.7133 12.3225 86.7133 11.4016C86.7133 10.4807 87.0085 9.7092 87.5977 9.08699C88.1875 8.46472 88.888 8.15361 89.6994 8.15361C90.1778 8.15361 90.6073 8.25321 90.9873 8.45229C91.3679 8.65143 91.652 8.90028 91.8395 9.19896H91.8909L91.8395 8.35275V5.54028H93.0191V14.4506H91.8909V13.6043H91.8395C91.652 13.903 91.3679 14.1519 90.9873 14.351C90.6073 14.5501 90.1778 14.6496 89.6994 14.6496ZM89.8919 13.6043C90.447 13.6043 90.9192 13.4052 91.3079 13.007C91.6965 12.6088 91.8909 12.0737 91.8909 11.4016C91.8909 10.7296 91.6965 10.1945 91.3079 9.79632C90.9192 9.3981 90.447 9.19896 89.8919 9.19896C89.3448 9.19896 88.875 9.40016 88.4821 9.8025C88.0891 10.2049 87.8923 10.7379 87.8923 11.4016C87.8923 12.0654 88.0891 12.5984 88.4821 13.0007C88.875 13.4031 89.3448 13.6043 89.8919 13.6043ZM97.1106 14.6496C96.1711 14.6496 95.3975 14.3407 94.791 13.7226C94.1845 13.1045 93.8812 12.3308 93.8812 11.4016C93.8812 10.4724 94.1845 9.69884 94.791 9.08075C95.3975 8.46265 96.1711 8.15361 97.1106 8.15361C97.8112 8.15361 98.3923 8.31953 98.8534 8.65143C99.315 8.98327 99.6523 9.40222 99.8659 9.90828L98.7896 10.3438C98.4647 9.58057 97.8798 9.19896 97.0338 9.19896C96.5127 9.19896 96.0535 9.4064 95.6562 9.82117C95.2589 10.236 95.0602 10.7628 95.0602 11.4016C95.0602 12.0404 95.2589 12.5673 95.6562 12.9821C96.0535 13.3969 96.5127 13.6043 97.0338 13.6043C97.9139 13.6043 98.5204 13.2227 98.8534 12.4595L99.9042 12.895C99.6907 13.3928 99.3472 13.8097 98.8725 14.1456C98.3985 14.4817 97.8112 14.6496 97.1106 14.6496ZM102.702 14.6496C102.036 14.6496 101.478 14.463 101.029 14.0897C100.581 13.7163 100.357 13.2227 100.357 12.6088C100.357 11.945 100.622 11.4245 101.151 11.047C101.681 10.6695 102.335 10.4807 103.112 10.4807C103.804 10.4807 104.372 10.6052 104.816 10.8541V10.6799C104.816 10.2319 104.659 9.87306 104.342 9.60342C104.026 9.33378 103.637 9.19896 103.176 9.19896C102.834 9.19896 102.525 9.27776 102.247 9.43544C101.969 9.59305 101.779 9.80874 101.677 10.0825L100.6 9.63452C100.745 9.26946 101.032 8.93144 101.459 8.62033C101.886 8.30916 102.45 8.15361 103.15 8.15361C103.954 8.15361 104.62 8.38179 105.15 8.83808C105.68 9.29437 105.945 9.93732 105.945 10.767V14.4506H104.816V13.6043H104.765C104.295 14.3012 103.608 14.6496 102.702 14.6496ZM102.894 13.6043C103.381 13.6043 103.823 13.428 104.22 13.0754C104.618 12.7229 104.816 12.306 104.816 11.8248C104.483 11.5593 103.983 11.4265 103.317 11.4265C102.744 11.4265 102.313 11.5468 102.023 11.7874C101.732 12.028 101.587 12.3101 101.587 12.6336C101.587 12.9323 101.719 13.1688 101.984 13.343C102.249 13.5172 102.552 13.6043 102.894 13.6043ZM109.395 14.6496C108.695 14.6496 108.116 14.4837 107.659 14.1519C107.202 13.82 106.866 13.4052 106.653 12.9074L107.703 12.4843C108.037 13.2476 108.605 13.6292 109.408 13.6292C109.775 13.6292 110.077 13.5504 110.311 13.3928C110.547 13.2352 110.664 13.0277 110.664 12.7706C110.664 12.3723 110.378 12.1027 109.805 11.9616L108.536 11.663C108.135 11.5634 107.755 11.3747 107.396 11.0968C107.038 10.8188 106.858 10.4434 106.858 9.97054C106.858 9.43126 107.103 8.99363 107.595 8.65761C108.086 8.32165 108.669 8.15361 109.344 8.15361C109.899 8.15361 110.395 8.276 110.831 8.52073C111.266 8.76552 111.578 9.11603 111.766 9.57232L110.741 9.98297C110.51 9.44368 110.032 9.1741 109.306 9.1741C108.955 9.1741 108.66 9.2446 108.421 9.38561C108.182 9.52667 108.062 9.71751 108.062 9.95805C108.062 10.3065 108.34 10.543 108.895 10.6674L110.139 10.9536C110.728 11.0864 111.164 11.3145 111.446 11.6381C111.728 11.9616 111.869 12.3267 111.869 12.7332C111.869 13.2808 111.638 13.737 111.177 14.1021C110.716 14.4672 110.121 14.6496 109.395 14.6496ZM115.397 14.5501C114.739 14.5501 114.237 14.3801 113.891 14.0399C113.544 13.6997 113.372 13.2186 113.372 12.5963V9.3981H112.27V8.35275H113.372V6.48604H114.551V8.35275H116.089V9.3981H114.551V12.5092C114.551 13.1729 114.833 13.5047 115.397 13.5047C115.61 13.5047 115.79 13.4716 115.935 13.4052L116.345 14.3883C116.089 14.4962 115.772 14.5501 115.397 14.5501ZM119.527 14.6496C118.826 14.6496 118.247 14.4837 117.791 14.1519C117.333 13.82 116.998 13.4052 116.784 12.9074L117.835 12.4843C118.168 13.2476 118.736 13.6292 119.54 13.6292C119.907 13.6292 120.208 13.5504 120.443 13.3928C120.678 13.2352 120.795 13.0277 120.795 12.7706C120.795 12.3723 120.509 12.1027 119.937 11.9616L118.668 11.663C118.267 11.5634 117.887 11.3747 117.528 11.0968C117.169 10.8188 116.989 10.4434 116.989 9.97054C116.989 9.43126 117.235 8.99363 117.726 8.65761C118.218 8.32165 118.801 8.15361 119.476 8.15361C120.031 8.15361 120.527 8.276 120.962 8.52073C121.398 8.76552 121.71 9.11603 121.898 9.57232L120.873 9.98297C120.642 9.44368 120.163 9.1741 119.437 9.1741C119.087 9.1741 118.792 9.2446 118.553 9.38561C118.314 9.52667 118.194 9.71751 118.194 9.95805C118.194 10.3065 118.471 10.543 119.027 10.6674L120.27 10.9536C120.86 11.0864 121.295 11.3145 121.578 11.6381C121.859 11.9616 122 12.3267 122 12.7332C122 13.2808 121.77 13.737 121.308 14.1021C120.847 14.4672 120.253 14.6496 119.527 14.6496Z" fill="white"/>
<path d="M28.8452 9.54191C28.8452 6.72249 31.2782 4.43774 34.1818 4.43774C35.7837 4.43774 36.9252 5.05025 37.7862 5.84747L36.7649 6.82943C36.1542 6.26553 35.3232 5.82803 34.1818 5.82803C32.0692 5.82803 30.4172 7.4808 30.4172 9.53221C30.4172 11.5836 32.0692 13.2364 34.1818 13.2364C35.5535 13.2364 36.3344 12.7017 36.835 12.2155C37.2456 11.817 37.5159 11.2434 37.616 10.4655H34.1818V9.07525H39.0177C39.0677 9.32804 39.0978 9.61969 39.0978 9.95026C39.0978 11.0003 38.8074 12.2933 37.8563 13.2072C36.9252 14.1406 35.7437 14.6364 34.1818 14.6364C31.2782 14.6364 28.8452 12.3517 28.8452 9.54191ZM42.9525 8.13223C44.8248 8.13223 46.3467 9.51275 46.3467 11.4183C46.3467 13.3142 44.8248 14.7045 42.9525 14.7045C41.0802 14.7045 39.5583 13.3142 39.5583 11.4183C39.5583 9.51275 41.0802 8.13223 42.9525 8.13223ZM42.9525 13.4017C43.9738 13.4017 44.8648 12.585 44.8648 11.4086C44.8648 10.2225 43.9738 9.41558 42.9525 9.41558C41.9212 9.41558 41.0402 10.2225 41.0402 11.4086C41.0402 12.585 41.9313 13.4017 42.9525 13.4017ZM50.3616 8.13223C52.2339 8.13223 53.7558 9.51275 53.7558 11.4183C53.7558 13.3142 52.2339 14.7045 50.3616 14.7045C48.4893 14.7045 46.9675 13.3142 46.9675 11.4183C46.9675 9.51275 48.4893 8.13223 50.3616 8.13223ZM50.3616 13.4017C51.3828 13.4017 52.2739 12.585 52.2739 11.4086C52.2739 10.2225 51.3929 9.41558 50.3616 9.41558C49.3303 9.41558 48.4493 10.2225 48.4493 11.4086C48.4493 12.585 49.3403 13.4017 50.3616 13.4017ZM59.4528 8.23917H60.8745V14.1406C60.8745 16.5712 59.4027 17.5628 57.6605 17.5628C56.0186 17.5628 55.0273 16.4934 54.6569 15.6184L55.9484 15.0933C56.1787 15.6281 56.7394 16.2601 57.6505 16.2601C58.7619 16.2601 59.4528 15.5892 59.4528 14.335V13.8586H59.4027C59.0723 14.2573 58.4315 14.6072 57.6205 14.6072C55.9284 14.6072 54.3765 13.1683 54.3765 11.3308C54.3765 9.4739 55.9284 8.035 57.6205 8.035C58.4315 8.035 59.0723 8.38496 59.4027 8.77391H59.4528V8.23917ZM57.7506 13.3142C58.7619 13.3142 59.5629 12.4878 59.5528 11.3308C59.5528 10.1739 58.7619 9.32804 57.7506 9.32804C56.7294 9.32804 55.8683 10.1739 55.8683 11.3308C55.8683 12.4781 56.7294 13.3142 57.7506 13.3142ZM61.8858 14.4808V4.82663H63.3674V14.4808H61.8858ZM67.4428 13.4017C68.2034 13.4017 68.7239 13.0419 69.1144 12.4975L70.2661 13.2461C69.8855 13.7808 68.9943 14.7045 67.4428 14.7045C65.5199 14.7045 64.0884 13.2559 64.0884 11.4183C64.0884 9.46414 65.5403 8.13223 67.2825 8.13223C69.0345 8.13223 69.8954 9.4836 70.1758 10.2225L70.3262 10.5919L65.8002 12.41C66.1512 13.0614 66.6815 13.4017 67.4428 13.4017ZM67.3326 9.39612C66.5714 9.39612 65.5199 10.0475 65.5601 11.3114L68.584 10.0961C68.4237 9.67807 67.923 9.39612 67.3326 9.39612Z" fill="white"/>
</svg>
