<svg width="24" height="24" viewBox="0 0 24 24" fill="none" xmlns="http://www.w3.org/2000/svg">
<path d="M18.5334 6.86675C18.5334 7.63995 17.9066 8.26675 17.1334 8.26675C16.3602 8.26675 15.7334 7.63995 15.7334 6.86675C15.7334 6.09355 16.3602 5.46675 17.1334 5.46675C17.9066 5.46675 18.5334 6.09355 18.5334 6.86675Z" fill="white"/>
<path fill-rule="evenodd" clip-rule="evenodd" d="M12.0001 16.6667C14.5774 16.6667 16.6667 14.5774 16.6667 12.0001C16.6667 9.42275 14.5774 7.33342 12.0001 7.33342C9.42275 7.33342 7.33342 9.42275 7.33342 12.0001C7.33342 14.5774 9.42275 16.6667 12.0001 16.6667ZM12.0001 14.8001C13.5465 14.8001 14.8001 13.5465 14.8001 12.0001C14.8001 10.4537 13.5465 9.20008 12.0001 9.20008C10.4537 9.20008 9.20008 10.4537 9.20008 12.0001C9.20008 13.5465 10.4537 14.8001 12.0001 14.8001Z" fill="white"/>
<path fill-rule="evenodd" clip-rule="evenodd" d="M2.66675 11.6267C2.66675 8.49045 2.66675 6.92231 3.27711 5.7244C3.814 4.67069 4.67069 3.814 5.7244 3.27711C6.92231 2.66675 8.49045 2.66675 11.6267 2.66675H12.3734C15.5097 2.66675 17.0779 2.66675 18.2758 3.27711C19.3295 3.814 20.1862 4.67069 20.7231 5.7244C21.3334 6.92231 21.3334 8.49045 21.3334 11.6267V12.3734C21.3334 15.5097 21.3334 17.0779 20.7231 18.2758C20.1862 19.3295 19.3295 20.1862 18.2758 20.7231C17.0779 21.3334 15.5097 21.3334 12.3734 21.3334H11.6267C8.49045 21.3334 6.92231 21.3334 5.7244 20.7231C4.67069 20.1862 3.814 19.3295 3.27711 18.2758C2.66675 17.0779 2.66675 15.5097 2.66675 12.3734V11.6267ZM11.6267 4.53341H12.3734C13.9724 4.53341 15.0593 4.53487 15.8995 4.60351C16.7179 4.67037 17.1364 4.79157 17.4283 4.94032C18.1308 5.29825 18.7019 5.86938 19.0598 6.57185C19.2086 6.8638 19.3298 7.28231 19.3967 8.10069C19.4653 8.94085 19.4667 10.0278 19.4667 11.6267V12.3734C19.4667 13.9724 19.4653 15.0593 19.3967 15.8995C19.3298 16.7179 19.2086 17.1364 19.0598 17.4283C18.7019 18.1308 18.1308 18.7019 17.4283 19.0598C17.1364 19.2086 16.7179 19.3298 15.8995 19.3967C15.0593 19.4653 13.9724 19.4667 12.3734 19.4667H11.6267C10.0278 19.4667 8.94085 19.4653 8.10069 19.3967C7.28231 19.3298 6.8638 19.2086 6.57185 19.0598C5.86938 18.7019 5.29825 18.1308 4.94032 17.4283C4.79157 17.1364 4.67037 16.7179 4.60351 15.8995C4.53487 15.0593 4.53341 13.9724 4.53341 12.3734V11.6267C4.53341 10.0278 4.53487 8.94085 4.60351 8.10069C4.67037 7.28231 4.79157 6.8638 4.94032 6.57185C5.29825 5.86938 5.86938 5.29825 6.57185 4.94032C6.8638 4.79157 7.28231 4.67037 8.10069 4.60351C8.94085 4.53487 10.0278 4.53341 11.6267 4.53341Z" fill="white"/>
</svg>
