<svg width="81" height="22" viewBox="0 0 81 22" fill="none" xmlns="http://www.w3.org/2000/svg">
<path d="M11.2735 0C9.14271 0 7.05975 0.645131 5.28804 1.8538C3.5164 3.06253 2.13553 4.78051 1.32006 6.79046C0.504657 8.80048 0.29131 11.0122 0.707036 13.146C1.1227 15.2798 2.14876 17.2398 3.65548 18.7782C5.16219 20.3165 7.08188 21.3642 9.17173 21.7886C11.2616 22.2131 13.4278 21.9953 15.3963 21.1627C17.365 20.3301 19.0476 18.9202 20.2314 17.1113C21.4152 15.3023 22.047 13.1756 22.047 11C22.047 8.0826 20.912 5.28473 18.8916 3.22185C16.8711 1.1589 14.1309 0 11.2735 0ZM16.2174 15.8635C16.1716 15.9413 16.1111 16.0089 16.0394 16.0626C15.9677 16.1162 15.8863 16.1547 15.7999 16.176C15.7135 16.1972 15.6238 16.2007 15.5361 16.1862C15.4484 16.1718 15.3643 16.1397 15.2888 16.0918C12.761 14.5116 9.57968 14.1604 5.83088 15.0295C5.74558 15.0503 5.65714 15.0536 5.57059 15.0392C5.4841 15.0248 5.40117 14.9929 5.32684 14.9456C5.25245 14.8982 5.18801 14.8363 5.13725 14.7633C5.08648 14.6903 5.0505 14.6077 5.03126 14.5204C5.01077 14.4328 5.00751 14.3419 5.02148 14.2529C5.03552 14.164 5.06655 14.0788 5.11287 14.0021C5.15918 13.9254 5.21992 13.8589 5.29143 13.8062C5.363 13.7535 5.44404 13.7158 5.52991 13.6951C9.63126 12.7382 13.1565 13.1508 15.9939 14.9242C16.1453 15.0187 16.2539 15.1706 16.2957 15.3467C16.3377 15.5228 16.3095 15.7086 16.2174 15.8635ZM17.533 12.8699C17.4129 13.0586 17.2263 13.193 17.0119 13.2453C16.7974 13.2975 16.5716 13.2637 16.3808 13.1508C13.1116 11.2888 9.2522 10.8279 5.65031 11.8691C5.53825 11.9329 5.41358 11.9703 5.28554 11.9785C5.15743 11.9867 5.02919 11.9655 4.91017 11.9165C4.79115 11.8675 4.68442 11.792 4.59774 11.6954C4.51106 11.5988 4.44663 11.4836 4.40921 11.3583C4.37179 11.2329 4.36233 11.1007 4.38151 10.9711C4.40068 10.8415 4.448 10.7181 4.52002 10.6096C4.59203 10.5012 4.68693 10.4106 4.79767 10.3444C4.90848 10.2783 5.03233 10.2383 5.16019 10.2275C7.17063 9.63655 9.27645 9.46181 11.354 9.71363C13.4315 9.96538 15.4388 10.6385 17.2579 11.6936C17.4427 11.8162 17.5742 12.0067 17.6254 12.2256C17.6767 12.4446 17.6436 12.6752 17.533 12.8699ZM17.6448 9.75339C14.2055 7.64642 8.45334 7.45328 5.13443 8.48043C4.87903 8.55964 4.60325 8.53194 4.36784 8.40349C4.13244 8.27509 3.95663 8.05646 3.8791 7.79567C3.80157 7.53494 3.82865 7.25337 3.95444 7.01298C4.08016 6.77265 4.29433 6.59313 4.54973 6.51399C8.35876 5.3376 14.6784 5.56585 18.6766 7.98003C18.8821 8.13024 19.0247 8.35391 19.0761 8.60663C19.1275 8.85929 19.0838 9.12246 18.9537 9.34381C18.8237 9.5651 18.6168 9.72828 18.3743 9.8009C18.1317 9.87359 17.8713 9.85035 17.6448 9.73584V9.75339Z" fill="#1ED760"/>
<path d="M33.288 9.25808C31.2241 8.74889 30.8543 8.38024 30.8543 7.66036C30.8543 6.94047 31.4992 6.48396 32.4626 6.48396C33.4948 6.52347 34.4863 6.90917 35.2823 7.58135C35.2986 7.5898 35.3162 7.59419 35.3343 7.59419C35.3519 7.59419 35.3701 7.5898 35.3857 7.58135C35.4196 7.5747 35.4503 7.55604 35.4716 7.52867L36.4863 6.07135C36.5064 6.04508 36.5177 6.01261 36.5177 5.97917C36.5177 5.94573 36.5064 5.91326 36.4863 5.88699C35.3676 4.95202 33.9592 4.45407 32.5139 4.48234C30.2871 4.48234 28.7309 5.85187 28.7309 7.80082C28.7309 9.89895 30.0721 10.6452 32.3936 11.2158C34.371 11.6811 34.7063 12.0937 34.7063 12.7697C34.7063 13.4456 34.0269 14.0163 32.9865 14.0163C31.7568 14.0076 30.5785 13.51 29.7023 12.6292C29.6691 12.6178 29.6328 12.6178 29.5989 12.6292C29.5638 12.6379 29.5312 12.6561 29.5043 12.6819L28.3523 14.0426C28.3285 14.0687 28.3147 14.1033 28.3147 14.1392C28.3147 14.1751 28.3285 14.2097 28.3523 14.2357C29.6039 15.3805 31.2291 16.0066 32.9094 15.9915C35.308 15.9915 36.8649 14.6483 36.8649 12.5766C36.8304 10.8471 35.7981 9.88139 33.288 9.25808Z" fill="white"/>
<path d="M42.2644 7.17633C41.7674 7.17317 41.2767 7.28633 40.8298 7.50697C40.3823 7.72761 39.9905 8.04998 39.6847 8.44929V7.4836C39.6828 7.4479 39.6671 7.4144 39.6414 7.38993C39.6157 7.36547 39.5819 7.35185 39.5474 7.35191H37.6816C37.6465 7.35185 37.6126 7.36547 37.5869 7.38993C37.5613 7.4144 37.5462 7.4479 37.5437 7.4836V18.1939C37.5437 18.2312 37.5581 18.2669 37.5838 18.2933C37.6101 18.3196 37.6446 18.3344 37.6816 18.3344H39.5299C39.5662 18.3344 39.6013 18.3196 39.627 18.2933C39.6527 18.2669 39.6678 18.2312 39.6678 18.1939V14.8316C39.9837 15.2141 40.3791 15.5204 40.8254 15.7284C41.271 15.9363 41.7567 16.0408 42.2469 16.0343C44.1817 16.0343 46.1421 14.5156 46.1421 11.6009C46.1421 8.68633 44.1986 7.17633 42.2644 7.17633ZM43.9836 11.5658C44.0162 11.8798 43.9842 12.1971 43.8902 12.4978C43.7962 12.7985 43.642 13.076 43.4377 13.3128C43.2327 13.5495 42.9827 13.7404 42.7025 13.8735C42.4217 14.0064 42.1178 14.0786 41.8088 14.0854C41.4985 14.0756 41.1939 14.0018 40.9125 13.8685C40.6311 13.7351 40.3791 13.545 40.1723 13.3095C39.9649 13.0741 39.8063 12.7982 39.706 12.4985C39.6064 12.1988 39.5669 11.8815 39.5901 11.5658C39.5681 11.2508 39.6082 10.9345 39.7091 10.6358C39.8094 10.3372 39.968 10.0623 40.1754 9.8278C40.3823 9.59335 40.6342 9.40402 40.9144 9.27117C41.1952 9.13839 41.4991 9.06486 41.8088 9.05505C42.1215 9.06054 42.4299 9.13251 42.7138 9.26639C42.9977 9.40027 43.2516 9.59309 43.4584 9.83258C43.6658 10.0721 43.8219 10.3531 43.9165 10.6575C44.0112 10.962 44.0431 11.2833 44.0093 11.6009L43.9836 11.5658Z" fill="white"/>
<path d="M51.1804 7.17683C50.3212 7.19252 49.4857 7.46764 48.7793 7.96746C48.073 8.46735 47.5277 9.16955 47.2118 9.98555C46.8959 10.8015 46.8239 11.6947 47.0044 12.5525C47.1855 13.4103 47.6111 14.1942 48.2272 14.8054C48.8439 15.4166 49.6242 15.8277 50.4691 15.9867C51.3139 16.1459 52.1864 16.0459 52.9761 15.6994C53.7652 15.353 54.4371 14.7755 54.9052 14.0399C55.3741 13.3044 55.6185 12.4437 55.6085 11.5663C55.6003 10.9811 55.48 10.4031 55.2531 9.86554C55.0256 9.32802 54.6972 8.84149 54.286 8.43378C53.8749 8.02601 53.3885 7.70512 52.8558 7.48945C52.323 7.27379 51.7533 7.16754 51.1804 7.17683ZM51.1804 14.1386C50.8627 14.1343 50.5493 14.0645 50.2585 13.9333C49.9683 13.8022 49.7063 13.6125 49.4895 13.3754C49.2726 13.1385 49.1053 12.8591 48.9968 12.5543C48.8884 12.2494 48.8414 11.9253 48.8589 11.6014C48.8389 11.282 48.8834 10.9618 48.9887 10.6606C49.0946 10.3594 49.2601 10.0834 49.4744 9.84986C49.6888 9.61624 49.9476 9.42995 50.2347 9.30239C50.5224 9.17484 50.8326 9.10874 51.146 9.10822C51.4644 9.11022 51.7796 9.17794 52.0717 9.30743C52.3644 9.43685 52.6282 9.62535 52.8476 9.86148C53.0663 10.0977 53.2368 10.3767 53.3478 10.6817C53.4587 10.9867 53.5082 11.3115 53.4932 11.6365C53.5132 11.9586 53.4681 12.2814 53.3609 12.5849C53.2537 12.8884 53.0864 13.1661 52.8695 13.4007C52.6521 13.6354 52.3907 13.822 52.0999 13.9489C51.8091 14.0759 51.4963 14.1404 51.1804 14.1386Z" fill="white"/>
<path d="M60.9311 7.35258H58.8935V5.22811C58.8935 5.19235 58.8803 5.15788 58.8559 5.13174C58.8321 5.10566 58.7995 5.08991 58.7644 5.08765H56.9155C56.8791 5.08765 56.844 5.10243 56.8183 5.12877C56.7926 5.1551 56.7782 5.19086 56.7782 5.22811V7.35258H55.8669C55.85 7.35258 55.8331 7.356 55.8174 7.36265C55.8017 7.36923 55.7873 7.37898 55.7754 7.39118C55.7635 7.40338 55.7541 7.4179 55.7478 7.43391C55.7409 7.44986 55.7378 7.46703 55.7378 7.48426V9.10839C55.7378 9.14415 55.7509 9.17862 55.7748 9.20476C55.7992 9.23084 55.8318 9.24659 55.8669 9.24885H56.7268V13.4452C56.7268 15.1395 57.5861 15.9999 59.1856 15.9999C59.7872 16.0172 60.382 15.8653 60.9054 15.5609C60.9261 15.5507 60.9442 15.5345 60.9561 15.5143C60.9687 15.494 60.9743 15.4705 60.9743 15.4468V13.9017C60.9743 13.8778 60.9693 13.8541 60.9586 13.8327C60.948 13.8114 60.9329 13.7928 60.9141 13.7788C60.8935 13.7655 60.8696 13.7585 60.8452 13.7585C60.8208 13.7585 60.797 13.7655 60.7763 13.7788C60.4403 13.9524 60.0693 14.0427 59.6926 14.0421C59.0997 14.0421 58.8333 13.77 58.8333 13.1642V9.24885H60.8709C60.9072 9.24885 60.9424 9.23407 60.9681 9.20773C60.9938 9.18139 61.0082 9.14563 61.0082 9.10839V7.48426C61.0094 7.45702 61.0025 7.4301 60.9887 7.40667C60.9749 7.3833 60.9549 7.36452 60.9311 7.35258Z" fill="white"/>
<path d="M68.0237 7.36161V7.09824C68.0237 6.32574 68.3076 5.98336 68.9526 5.98336C69.3111 5.98756 69.6664 6.05592 70.0018 6.18528C70.0206 6.19399 70.0413 6.19851 70.0619 6.19851C70.0826 6.19851 70.1033 6.19399 70.1221 6.18528C70.1384 6.17166 70.1522 6.15423 70.161 6.13441C70.1697 6.1146 70.1741 6.09297 70.1735 6.07115V4.46459C70.1747 4.4338 70.1666 4.40339 70.1497 4.37802C70.1321 4.35265 70.1077 4.33374 70.0789 4.32412C69.5768 4.18927 69.0585 4.13014 68.5402 4.14854C66.8204 4.14854 65.9605 5.13179 65.9605 6.98417V7.38795H65.1006C65.0667 7.38795 65.0335 7.40182 65.0097 7.42655C64.9852 7.45127 64.9714 7.48471 64.9714 7.51963V9.15253C64.9714 9.18829 64.9846 9.22277 65.009 9.24891C65.0329 9.27499 65.0655 9.29074 65.1006 9.293H65.9605V15.7719C65.9605 15.8068 65.9742 15.8403 65.9981 15.865C66.0225 15.8897 66.0551 15.9036 66.0896 15.9036H67.9034C67.9385 15.9036 67.9723 15.89 67.998 15.8655C68.0237 15.8411 68.0388 15.8076 68.0413 15.7719V9.2491H69.7611L72.4091 15.7192C72.1083 16.404 71.8074 16.5356 71.4032 16.5356C71.0466 16.5258 70.6981 16.4262 70.3885 16.2459C70.3709 16.2374 70.3521 16.2329 70.3327 16.2329C70.3133 16.2329 70.2945 16.2374 70.2769 16.2459C70.2594 16.251 70.2437 16.2599 70.2305 16.2721C70.2167 16.2843 70.2061 16.2993 70.1992 16.3162L69.6232 17.712C69.6107 17.7437 69.6101 17.7791 69.6207 17.8115C69.632 17.8437 69.6539 17.8708 69.6834 17.8876C70.2844 18.2395 70.9682 18.4185 71.6608 18.4055C73.0196 18.4055 73.7761 17.7559 74.4467 16.0089L77.6538 7.54597C77.6645 7.5257 77.6701 7.50311 77.6701 7.48013C77.6701 7.45721 77.6645 7.43462 77.6538 7.41428C77.6406 7.39724 77.6237 7.38362 77.6043 7.37452C77.5849 7.36535 77.5636 7.36096 77.5422 7.36161H75.5648C75.5373 7.36342 75.5109 7.37245 75.4884 7.38788C75.4658 7.40324 75.4476 7.42448 75.4357 7.4494L73.4665 13.1996L71.343 7.4494C71.3324 7.42326 71.3148 7.40086 71.2916 7.38523C71.2684 7.36955 71.2415 7.36135 71.2139 7.36161H68.0237Z" fill="white"/>
<path d="M63.9142 7.35352H62.0659C61.99 7.35352 61.928 7.41639 61.928 7.49398V15.7286C61.928 15.8062 61.99 15.8691 62.0659 15.8691H63.9142C63.9906 15.8691 64.052 15.8062 64.052 15.7286V7.49398C64.052 7.41639 63.9906 7.35352 63.9142 7.35352Z" fill="white"/>
<path d="M62.994 3.59573C62.7301 3.59399 62.4713 3.67235 62.2513 3.82076C62.0307 3.96923 61.859 4.18115 61.7568 4.42961C61.6546 4.67814 61.6271 4.95197 61.6772 5.2165C61.728 5.48103 61.854 5.72433 62.0401 5.91553C62.2262 6.10667 62.4638 6.23713 62.722 6.29038C62.9809 6.34357 63.2491 6.31717 63.4935 6.21447C63.7374 6.1117 63.9461 5.93729 64.0927 5.71335C64.24 5.48942 64.3184 5.22599 64.3184 4.95648C64.319 4.77819 64.2858 4.60145 64.22 4.43639C64.1535 4.27133 64.0564 4.12131 63.9335 3.99479C63.8101 3.86833 63.664 3.76796 63.5029 3.69947C63.3412 3.63098 63.1689 3.59573 62.994 3.59573Z" fill="white"/>
<path d="M79.1933 9.99522C79.0222 9.99638 78.853 9.96288 78.695 9.89671C78.5371 9.83048 78.3936 9.73288 78.2726 9.60959C78.1516 9.48623 78.0564 9.33963 77.9912 9.17832C77.9266 9.01694 77.894 8.844 77.8953 8.66965C77.8953 8.31571 78.0326 7.9763 78.2776 7.72603C78.5227 7.47583 78.8555 7.33523 79.2021 7.33523C79.3726 7.33407 79.5418 7.36757 79.7003 7.43374C79.8583 7.49997 80.0018 7.59757 80.1228 7.72087C80.2431 7.84422 80.339 7.99082 80.4036 8.1522C80.4687 8.31352 80.5013 8.48645 80.5001 8.66087C80.5001 9.01474 80.3628 9.35416 80.1178 9.60442C79.8721 9.85463 79.5399 9.99522 79.1933 9.99522ZM79.1933 7.46692C78.9595 7.46518 78.7308 7.53444 78.5358 7.66593C78.3409 7.79742 78.1886 7.98514 78.0984 8.20526C78.0081 8.42538 77.9837 8.66797 78.0288 8.9021C78.0739 9.13616 78.1867 9.35131 78.3516 9.52005C78.517 9.68879 78.7276 9.8035 78.957 9.84959C79.1864 9.89575 79.424 9.87115 79.6396 9.77904C79.8552 9.68692 80.0388 9.53142 80.1679 9.33234C80.2964 9.1332 80.3641 8.89945 80.3628 8.66087C80.3641 8.50446 80.3346 8.34941 80.277 8.20462C80.2187 8.05983 80.1334 7.92814 80.0256 7.81711C79.9178 7.70615 79.7893 7.61804 79.6483 7.55794C79.5067 7.49784 79.355 7.46692 79.2021 7.46692H79.1933ZM79.4854 8.80127L79.847 9.32801H79.5374L79.2102 8.84523H78.9269V9.32801H78.6599V7.93221H79.271C79.5888 7.93221 79.8038 8.09901 79.8038 8.37116C79.8056 8.4676 79.7762 8.56204 79.7204 8.63976C79.6646 8.71755 79.585 8.77429 79.4941 8.80127H79.4854ZM79.2622 8.16924H78.9269V8.6082H79.2622C79.434 8.6082 79.5374 8.52918 79.5374 8.38872C79.5374 8.24825 79.4427 8.16924 79.271 8.16924H79.2622Z" fill="white"/>
</svg>
