<svg width="24" height="24" viewBox="0 0 24 24" fill="none" xmlns="http://www.w3.org/2000/svg">
<path d="M6.33822 14.8446C6.45542 13.8742 6.85342 13.3308 7.60344 12.7739C8.67659 12.0195 10.0171 12.4462 10.0171 12.4462V9.91486C10.343 9.90653 10.669 9.92585 10.9914 9.97259V13.2302C10.9914 13.2302 9.65125 12.8035 8.5781 13.5582C7.82849 14.1148 7.42967 14.6586 7.31288 15.629C7.30921 16.1559 7.4081 16.8447 7.86349 17.4403C7.7509 17.3826 7.63614 17.3168 7.5192 17.243C6.51606 16.5694 6.33333 15.5588 6.33822 14.8446ZM16.5264 5.23436C15.7881 4.42541 15.509 3.60866 15.4081 3.03491H16.3367C16.3367 3.03491 16.1516 4.5393 17.501 6.01873L17.5197 6.03862C17.156 5.80985 16.8225 5.5398 16.5264 5.23436ZM21 7.52781V10.7199C21 10.7199 19.815 10.6735 18.938 10.4504C17.7135 10.1384 16.9264 9.65977 16.9264 9.65977C16.9264 9.65977 16.3827 9.31849 16.3388 9.2947V15.8864C16.3388 16.2534 16.2382 17.17 15.9318 17.9345C15.5318 18.9346 14.9144 19.591 14.8009 19.7252C14.8009 19.7252 14.05 20.6125 12.7254 21.2101C11.5314 21.7491 10.4831 21.7355 10.1697 21.7491C10.1697 21.7491 8.35753 21.8209 6.72686 20.7612C6.37424 20.5276 6.04508 20.263 5.74365 19.9709L5.75179 19.9768C7.38287 21.0365 9.19464 20.9648 9.19464 20.9648C9.5084 20.9511 10.5567 20.9648 11.7503 20.4257C13.0738 19.8282 13.8258 18.9408 13.8258 18.9408C13.9381 18.8066 14.5583 18.1502 14.9567 17.1498C15.2624 16.3857 15.3637 15.4687 15.3637 15.1016V8.51071C15.4076 8.53489 15.9509 8.87618 15.9509 8.87618C15.9509 8.87618 16.7384 9.35515 17.9629 9.6668C18.8403 9.8899 20.025 9.93631 20.025 9.93631V7.43498C20.4303 7.52586 20.7758 7.55043 21 7.52781Z" fill="white"/>
<path d="M20.0254 7.43497V9.93553C20.0254 9.93553 18.8408 9.88912 17.9634 9.66601C16.7388 9.35398 15.9514 8.8754 15.9514 8.8754C15.9514 8.8754 15.4081 8.53411 15.3641 8.50993V15.1024C15.3641 15.4694 15.2636 16.3864 14.9572 17.1505C14.5571 18.151 13.9398 18.8074 13.8262 18.9416C13.8262 18.9416 13.075 19.8289 11.7508 20.4265C10.5572 20.9655 9.50884 20.9519 9.19507 20.9655C9.19507 20.9655 7.3833 21.0373 5.75222 19.9776L5.74408 19.9717C5.57187 19.805 5.40978 19.6289 5.25858 19.4444C4.73808 18.8098 4.41903 18.0593 4.33886 17.8452C4.33872 17.8443 4.33872 17.8434 4.33886 17.8425C4.20986 17.4704 3.93882 16.5768 3.97586 15.7113C4.04138 14.1843 4.57856 13.247 4.72059 13.0122C5.09674 12.3719 5.58597 11.799 6.1665 11.319C6.67879 10.9048 7.25945 10.5753 7.88467 10.3439C8.56056 10.0722 9.28431 9.92661 10.0171 9.91486V12.4462C10.0171 12.4462 8.67661 12.0211 7.60387 12.7739C6.85385 13.3308 6.45585 13.8742 6.33864 14.8446C6.33376 15.5588 6.51648 16.5694 7.51882 17.2434C7.63575 17.3175 7.75051 17.3833 7.8631 17.4407C8.03821 17.6683 8.25134 17.8667 8.49389 18.0277C9.47302 18.6475 10.2934 18.6908 11.3426 18.2883C12.0421 18.0192 12.5687 17.4126 12.8129 16.7406C12.9663 16.3209 12.9643 15.8985 12.9643 15.4616V3.03491H15.406C15.507 3.60866 15.7861 4.42541 16.5244 5.23436C16.8205 5.5398 17.154 5.80985 17.5177 6.03862C17.6252 6.14979 18.1746 6.69936 18.8798 7.03674C19.2445 7.21114 19.6289 7.34476 20.0254 7.43497V7.43497Z" fill="white"/>
<path d="M3.36694 17.0676V17.0696L3.42753 17.2338C3.42057 17.2147 3.39806 17.1566 3.36694 17.0676Z" fill="white"/>
<path d="M7.88461 10.3437C7.25939 10.5751 6.67873 10.9047 6.16644 11.3188C5.58572 11.7999 5.09661 12.374 4.72094 13.0155C4.57891 13.2495 4.04172 14.1876 3.9762 15.7146C3.93917 16.5801 4.2102 17.4737 4.33921 17.8458C4.33907 17.8467 4.33907 17.8476 4.33921 17.8485C4.4206 18.0607 4.73843 18.8112 5.25893 19.4477C5.41012 19.6322 5.57222 19.8083 5.74443 19.975C5.19268 19.6093 4.7006 19.1671 4.28427 18.6629C3.76825 18.0338 3.45001 17.2912 3.36699 17.072C3.36689 17.0704 3.36689 17.0688 3.36699 17.0673V17.0645C3.23758 16.6928 2.96573 15.7989 3.00358 14.9322C3.0691 13.4052 3.60628 12.4679 3.74831 12.2331C4.12388 11.5915 4.613 11.0174 5.19382 10.5364C5.706 10.1221 6.28669 9.79254 6.91199 9.56131C7.30202 9.40621 7.70833 9.29179 8.1239 9.22002C8.75019 9.11524 9.38984 9.10616 10.0191 9.19311V9.91469C9.2856 9.92619 8.56113 10.0718 7.88461 10.3437Z" fill="white"/>
<path d="M15.4081 3.03476H12.9664V15.4619C12.9664 15.8987 12.9664 16.32 12.815 16.7408C12.5683 17.4125 12.0438 18.019 11.3446 18.2881C10.2951 18.6922 9.47467 18.6474 8.49594 18.0276C8.25297 17.8673 8.03929 17.6696 7.86353 17.4425C8.69738 17.8688 9.44374 17.8614 10.3683 17.5057C11.0671 17.2366 11.5925 16.6301 11.8383 15.958C11.9921 15.5383 11.9901 15.1159 11.9901 14.6795V2.25H15.3617C15.3617 2.25 15.3238 2.55891 15.4081 3.03476ZM20.0254 6.74328V7.43483C19.6296 7.34447 19.2459 7.21085 18.8819 7.0366C18.1766 6.69921 17.6272 6.14964 17.5198 6.03848C17.6445 6.11693 17.7738 6.1883 17.9072 6.25222C18.7647 6.66255 19.6091 6.78502 20.0254 6.74328Z" fill="white"/>
</svg>
