<svg width="99" height="22" viewBox="0 0 99 22" fill="none" xmlns="http://www.w3.org/2000/svg">
<path d="M30.8953 3.44235C30.5315 2.09647 29.4661 1.03529 28.1149 0.672941C25.6464 0 15.7724 0 15.7724 0C15.7724 0 5.89842 0 3.42992 0.647059C2.10472 1.00941 1.01339 2.09647 0.649606 3.44235C0 5.90118 0 11 0 11C0 11 0 16.1247 0.649606 18.5576C1.01339 19.9035 2.07874 20.9647 3.42992 21.3271C5.92441 22 15.7724 22 15.7724 22C15.7724 22 25.6464 22 28.1149 21.3529C29.4661 20.9906 30.5315 19.9294 30.8953 18.5835C31.5449 16.1247 31.5449 11.0259 31.5449 11.0259C31.5449 11.0259 31.5709 5.90118 30.8953 3.44235Z" fill="#FF0000"/>
<path d="M12.6284 6.28931V15.7105L20.8394 10.9999L12.6284 6.28931Z" fill="white"/>
<path d="M45.8102 20.0328C45.1866 19.6187 44.7448 18.9716 44.485 18.0658C44.2251 17.1858 44.0952 15.9952 44.0952 14.5458V12.5528C44.0952 11.0775 44.2511 9.88694 44.5369 8.98106C44.8488 8.07518 45.3165 7.42812 45.9401 7.014C46.5897 6.59988 47.4212 6.39282 48.4606 6.39282C49.474 6.39282 50.3054 6.59988 50.9291 7.014C51.5527 7.42812 51.9944 8.10106 52.2803 8.98106C52.5661 9.86106 52.722 11.0516 52.722 12.5528V14.5458C52.722 16.0211 52.5921 17.1858 52.3062 18.0916C52.0204 18.9716 51.5787 19.6446 50.9551 20.0587C50.3314 20.4728 49.474 20.6799 48.4086 20.6799C47.3173 20.654 46.4338 20.4469 45.8102 20.0328ZM49.318 17.8587C49.4999 17.4187 49.5779 16.6681 49.5779 15.6587V11.3622C49.5779 10.3787 49.4999 9.654 49.318 9.18812C49.1362 8.72223 48.8503 8.51518 48.4086 8.51518C47.9929 8.51518 47.681 8.74812 47.5251 9.18812C47.3432 9.654 47.2653 10.3787 47.2653 11.3622V15.6587C47.2653 16.6681 47.3432 17.4187 47.5251 17.8587C47.681 18.2987 47.9928 18.5316 48.4346 18.5316C48.8503 18.5316 49.1362 18.3246 49.318 17.8587Z" fill="white"/>
<path d="M93.7771 14.5717V15.2705C93.7771 16.1505 93.8031 16.8234 93.8551 17.2634C93.907 17.7034 94.011 18.0399 94.1929 18.2211C94.3488 18.4281 94.6086 18.5317 94.9724 18.5317C95.4401 18.5317 95.7519 18.3505 95.9338 17.9881C96.1157 17.6258 96.1936 17.0305 96.2196 16.1764L98.896 16.3317C98.922 16.4611 98.922 16.6164 98.922 16.8234C98.922 18.0917 98.5842 19.0493 97.8826 19.6705C97.1811 20.2917 96.1936 20.6022 94.9204 20.6022C93.3873 20.6022 92.322 20.1105 91.6984 19.1528C91.0748 18.1952 90.7629 16.7199 90.7629 14.7011V12.294C90.7629 10.2234 91.0748 8.72224 91.7244 7.76459C92.374 6.80695 93.4653 6.34106 94.9984 6.34106C96.0637 6.34106 96.8952 6.54812 97.4669 6.93636C98.0385 7.32459 98.4283 7.94577 98.6622 8.74812C98.896 9.57636 98.9999 10.7152 98.9999 12.1646V14.5199H93.7771V14.5717ZM94.1669 8.77401C94.011 8.98106 93.907 9.29165 93.8551 9.73165C93.8031 10.1717 93.7771 10.8446 93.7771 11.7505V12.734H96.0637V11.7505C96.0637 10.8705 96.0377 10.1975 95.9858 9.73165C95.9338 9.26577 95.8039 8.95518 95.648 8.77401C95.4921 8.59283 95.2322 8.4893 94.9204 8.4893C94.5566 8.46342 94.3228 8.56695 94.1669 8.77401Z" fill="white"/>
<path d="M38.2228 14.313L34.689 1.55298H37.7811L39.0283 7.32474C39.3401 8.74827 39.574 9.96474 39.7299 10.9742H39.8079C39.9118 10.2494 40.1457 9.05886 40.5094 7.35063L41.8086 1.55298H44.9008L41.3149 14.313V20.4212H38.2488V14.313H38.2228Z" fill="white"/>
<path d="M62.7781 6.65186V20.4472H60.3356L60.0758 18.7648H59.9978C59.3482 20.033 58.3348 20.6801 57.0096 20.6801C56.1002 20.6801 55.4246 20.3695 54.9829 19.7742C54.5411 19.1789 54.3333 18.2472 54.3333 16.953V6.65186H57.4514V16.7719C57.4514 17.393 57.5293 17.833 57.6592 18.0919C57.7892 18.3507 58.023 18.4801 58.3348 18.4801C58.5947 18.4801 58.8545 18.4024 59.1144 18.2213C59.3742 18.066 59.5561 17.8589 59.66 17.6001V6.65186H62.7781Z" fill="white"/>
<path d="M78.7581 6.65186V20.4472H76.3156L76.0558 18.7648H75.9778C75.3282 20.033 74.3148 20.6801 72.9896 20.6801C72.0802 20.6801 71.4046 20.3695 70.9628 19.7742C70.5211 19.1789 70.3132 18.2472 70.3132 16.953V6.65186H73.4313V16.7719C73.4313 17.393 73.5093 17.833 73.6392 18.0919C73.7691 18.3507 74.003 18.4801 74.3148 18.4801C74.5746 18.4801 74.8345 18.4024 75.0943 18.2213C75.3542 18.066 75.5361 17.8589 75.64 17.6001V6.65186H78.7581Z" fill="white"/>
<path d="M71.2488 4.06357H68.1567V20.4212H65.1165V4.06357H62.0244V1.55298H71.2488V4.06357Z" fill="white"/>
<path d="M89.074 8.85165C88.8921 7.97165 88.5803 7.35047 88.1646 6.96224C87.7488 6.574 87.1512 6.36695 86.4236 6.36695C85.852 6.36695 85.3063 6.52224 84.8126 6.85871C84.3189 7.1693 83.9292 7.6093 83.6693 8.12695H83.6433V0.854004H80.6292V20.4211H83.2016L83.5134 19.1269H83.5914C83.8252 19.5928 84.189 19.9552 84.6827 20.2399C85.1764 20.4987 85.6961 20.654 86.2937 20.654C87.3591 20.654 88.1126 20.1622 88.6063 19.2046C89.1 18.2469 89.3599 16.7199 89.3599 14.6752V12.5011C89.3339 10.9222 89.2559 9.70577 89.074 8.85165ZM86.2158 14.4681C86.2158 15.4775 86.1638 16.254 86.0858 16.8234C86.0079 17.3928 85.852 17.8069 85.6701 18.0399C85.4622 18.2728 85.2024 18.4022 84.8906 18.4022C84.6307 18.4022 84.3969 18.3505 84.189 18.2211C83.9811 18.0917 83.7992 17.9105 83.6693 17.6775V9.86106C83.7732 9.49871 83.9551 9.18812 84.215 8.9293C84.4748 8.69636 84.7606 8.56695 85.0465 8.56695C85.3583 8.56695 85.6181 8.69636 85.774 8.9293C85.9559 9.18812 86.0599 9.60224 86.1378 10.1717C86.2158 10.7669 86.2417 11.5952 86.2417 12.6564V14.4681H86.2158Z" fill="white"/>
</svg>
