<svg width="134" height="134" viewBox="0 0 134 134" fill="none" xmlns="http://www.w3.org/2000/svg">
<path d="M29.864 24.88C33.1973 22.1352 36.8484 19.7341 40.7703 17.8384C48.0776 14.2655 56.2916 12.2395 64.9063 12.2395C80.1036 12.2395 93.8903 18.4269 103.865 28.4008C113.813 38.3487 120.001 52.1355 120.001 67.3328C120.001 82.5301 113.813 96.3168 103.865 106.265C93.8909 116.239 80.1049 122.426 64.9063 122.426C53.4375 122.426 42.7183 118.879 33.8903 112.801C24.7965 106.587 17.6769 97.6811 13.5983 87.2024C12.8795 85.3379 13.8118 83.2024 15.7024 82.4836C17.5669 81.7649 19.7024 82.6971 20.4212 84.5877C23.942 93.6555 30.1295 101.39 37.9945 106.776C45.6456 112.005 54.9265 115.093 64.9012 115.093C78.0991 115.093 90.0465 109.734 98.6879 101.093C107.302 92.4789 112.661 80.5308 112.661 67.3335C112.661 54.1361 107.302 42.1881 98.6879 33.5735C90.0472 24.9328 78.0999 19.5735 64.9012 19.5735C57.3804 19.5735 50.2612 21.3339 43.9692 24.4016C40.7973 25.9485 37.8077 27.8704 35.0629 30.0527L48.6883 43.678C49.381 44.3707 49.381 45.5425 48.6883 46.2665C48.3393 46.6155 47.8601 46.7978 47.381 46.7978H15.1676C14.152 46.7978 13.3291 45.9697 13.3291 44.9853V12.7453C13.3291 11.7296 14.1572 10.9067 15.1416 10.9067C15.6469 10.9067 16.1 11.1203 16.4489 11.438L29.8609 24.8753L29.864 24.88Z" fill="#eb5757"/>
<path d="M75.5505 89.768C73.2465 89.768 70.9105 89.512 68.5425 89C66.1745 88.488 64.0945 87.736 62.3025 86.744L66.1425 78.392C67.5825 79.224 69.0865 79.848 70.6545 80.264C72.2225 80.648 73.7105 80.84 75.1185 80.84C76.3985 80.84 77.4545 80.616 78.2865 80.168C79.1185 79.72 79.5345 79.064 79.5345 78.2C79.5345 77.72 79.3905 77.304 79.1025 76.952C78.8145 76.568 78.3025 76.28 77.5665 76.088C76.8625 75.896 75.8225 75.8 74.4465 75.8H64.7025L66.3825 55.4H88.7025V63.944H70.3665L76.0785 59.096L75.0705 72.104L69.3585 67.256H77.1825C80.5105 67.256 83.1665 67.736 85.1505 68.696C87.1665 69.656 88.6225 70.952 89.5185 72.584C90.4465 74.184 90.9105 75.976 90.9105 77.96C90.9105 79.944 90.3665 81.848 89.2785 83.672C88.2225 85.464 86.5585 86.936 84.2865 88.088C82.0465 89.208 79.1345 89.768 75.5505 89.768Z" fill="#eb5757"/>
<path d="M48 89V59.336L52.848 63.944H42.24V55.4H59.328V89H48Z" fill="#eb5757"/>
</svg>
