<svg width="134" height="134" viewBox="0 0 134 134" fill="none" xmlns="http://www.w3.org/2000/svg">
<path d="M103.466 24.88C100.133 22.1352 96.4817 19.7341 92.5598 17.8384C85.2525 14.2655 77.0385 12.2395 68.4238 12.2395C53.2265 12.2395 39.4398 18.4269 29.4651 28.4008C19.5172 38.3487 13.3291 52.1355 13.3291 67.3328C13.3291 82.5301 19.5166 96.3168 29.4651 106.265C39.4391 116.239 53.2251 122.426 68.4238 122.426C79.8926 122.426 90.6118 118.879 99.4398 112.801C108.534 106.587 115.653 97.6811 119.732 87.2024C120.451 85.3379 119.518 83.2024 117.628 82.4836C115.763 81.7649 113.628 82.6971 112.909 84.5877C109.388 93.6555 103.201 101.39 95.3355 106.776C87.6845 112.005 78.4035 115.093 68.4289 115.093C55.231 115.093 43.2835 109.734 34.6422 101.093C26.0276 92.4789 20.6689 80.5308 20.6689 67.3335C20.6689 54.1361 26.0282 42.1881 34.6422 33.5735C43.2828 24.9328 55.2302 19.5735 68.4289 19.5735C75.9497 19.5735 83.0689 21.3339 89.3609 24.4016C92.5327 25.9485 95.5223 27.8704 98.2671 30.0527L84.6418 43.678C83.9491 44.3707 83.9491 45.5425 84.6418 46.2665C84.9907 46.6155 85.4699 46.7978 85.9491 46.7978H118.162C119.178 46.7978 120.001 45.9697 120.001 44.9853V12.7453C120.001 11.7296 119.173 10.9067 118.188 10.9067C117.683 10.9067 117.23 11.1203 116.881 11.438L103.469 24.8753L103.466 24.88Z" fill="#eb5757"/>
<path d="M85.0924 89.768C82.1164 89.768 79.4764 89.08 77.1724 87.704C74.9004 86.328 73.1084 84.328 71.7964 81.704C70.5164 79.08 69.8764 75.912 69.8764 72.2C69.8764 68.488 70.5164 65.32 71.7964 62.696C73.1084 60.072 74.9004 58.072 77.1724 56.696C79.4764 55.32 82.1164 54.632 85.0924 54.632C88.0684 54.632 90.6924 55.32 92.9644 56.696C95.2684 58.072 97.0604 60.072 98.3404 62.696C99.6524 65.32 100.308 68.488 100.308 72.2C100.308 75.912 99.6524 79.08 98.3404 81.704C97.0604 84.328 95.2684 86.328 92.9644 87.704C90.6924 89.08 88.0684 89.768 85.0924 89.768ZM85.0924 80.696C85.8284 80.696 86.4844 80.44 87.0604 79.928C87.6364 79.416 88.0844 78.536 88.4044 77.288C88.7564 76.04 88.9324 74.344 88.9324 72.2C88.9324 70.024 88.7564 68.328 88.4044 67.112C88.0844 65.864 87.6364 64.984 87.0604 64.472C86.4844 63.96 85.8284 63.704 85.0924 63.704C84.3564 63.704 83.7004 63.96 83.1244 64.472C82.5484 64.984 82.0844 65.864 81.7324 67.112C81.4124 68.328 81.2524 70.024 81.2524 72.2C81.2524 74.344 81.4124 76.04 81.7324 77.288C82.0844 78.536 82.5484 79.416 83.1244 79.928C83.7004 80.44 84.3564 80.696 85.0924 80.696Z" fill="#eb5757"/>
<path d="M51.96 89.768C49.656 89.768 47.32 89.512 44.952 89C42.584 88.488 40.504 87.736 38.712 86.744L42.552 78.392C43.992 79.224 45.496 79.848 47.064 80.264C48.664 80.648 50.168 80.84 51.576 80.84C52.856 80.84 53.896 80.632 54.696 80.216C55.528 79.768 55.944 79.112 55.944 78.248C55.944 77.512 55.64 76.952 55.032 76.568C54.424 76.152 53.4 75.944 51.96 75.944H47.496V68.984L56.184 60.152L57.192 63.944H40.44V55.4H65.496V62.36L56.808 71.192L51.384 68.12H54.36C58.584 68.12 61.8 69.064 64.008 70.952C66.216 72.84 67.32 75.272 67.32 78.248C67.32 80.168 66.776 82.008 65.688 83.768C64.632 85.528 62.968 86.968 60.696 88.088C58.456 89.208 55.544 89.768 51.96 89.768Z" fill="#eb5757"/>
</svg>
