<svg width="32" height="32" viewBox="0 0 32 32" fill="none" xmlns="http://www.w3.org/2000/svg">
<g id="np_location_888709_000000 1">
<g id="Group">
<path id="Vector" d="M16 20C11.2 20 7.33374 21.4662 7.33374 23.3338C7.33374 25.2 11.2 26.6675 16 26.6675C20.8 26.6675 24.6662 25.2013 24.6662 23.3338C24.6662 21.4663 20.8 20 16 20ZM16 24.6662C12.6662 24.6662 9.99998 24.0662 9.99998 23.3325C9.99998 22.5987 12.6662 21.9987 16 21.9987C19.3337 21.9987 22 22.5987 22 23.3325C22 24.0662 19.3337 24.6662 16 24.6662Z" fill="white"/>
<path id="Vector_2" d="M16 5.33374C12.6662 5.33374 10 7.99998 10 11.3337C10 14.6675 16 24 16 24C16 24 22 14.6662 22 11.3337C22 7.99998 19.3338 5.33374 16 5.33374ZM16 14C14.5338 14 13.3338 12.8 13.3338 11.3337C13.3338 9.8675 14.5338 8.6675 16 8.6675C17.4662 8.6675 18.6662 9.8675 18.6662 11.3337C18.6662 12.8 17.4662 14 16 14Z" fill="white"/>
</g>
</g>
</svg>
